<svg xmlns="http://www.w3.org/2000/svg" width="2400" height="1400" viewBox="0 0 2400 1400">
<!-- PROVISIONAL brand pattern: stand-in until the export from the brand book replaces this file. -->
<rect width="2400" height="1400" fill="#EFE6D6"/>
<g fill="none" stroke="#16284A" stroke-opacity="0.05" stroke-width="2">
<path d="M-20 60 Q100 110 200 47 Q300 25 400 74 Q500 64 600 50 Q700 90 800 75 Q900 65 1000 71 Q1100 76 1200 79 Q1300 29 1400 52 Q1500 85 1600 72 Q1700 6 1800 71 Q1900 56 2000 85 Q2100 97 2200 37 Q2300 62 2400 85 Q2500 83 2600 69 Q2700 69 2800 85"/>
<path d="M-20 187 Q100 172 200 177 Q300 228 400 177 Q500 146 600 175 Q700 179 800 175 Q900 240 1000 191 Q1100 215 1200 210 Q1300 134 1400 174 Q1500 195 1600 188 Q1700 178 1800 169 Q1900 236 2000 161 Q2100 171 2200 178 Q2300 207 2400 213 Q2500 189 2600 167 Q2700 176 2800 174"/>
<path d="M-20 271 Q100 262 200 261 Q300 275 400 278 Q500 239 600 295 Q700 266 800 293 Q900 287 1000 279 Q1100 273 1200 271 Q1300 294 1400 297 Q1500 259 1600 283 Q1700 241 1800 276 Q1900 253 2000 261 Q2100 258 2200 289 Q2300 316 2400 248 Q2500 309 2600 246 Q2700 260 2800 250"/>
<path d="M-20 362 Q100 422 200 346 Q300 378 400 341 Q500 357 600 368 Q700 319 800 388 Q900 408 1000 386 Q1100 409 1200 387 Q1300 394 1400 349 Q1500 304 1600 347 Q1700 311 1800 332 Q1900 376 2000 346 Q2100 391 2200 362 Q2300 385 2400 347 Q2500 408 2600 346 Q2700 347 2800 386"/>
<path d="M-20 464 Q100 462 200 434 Q300 513 400 472 Q500 514 600 435 Q700 512 800 445 Q900 520 1000 467 Q1100 485 1200 450 Q1300 430 1400 446 Q1500 471 1600 437 Q1700 496 1800 476 Q1900 489 2000 463 Q2100 407 2200 440 Q2300 514 2400 441 Q2500 486 2600 487 Q2700 408 2800 487"/>
<path d="M-20 586 Q100 645 200 613 Q300 618 400 581 Q500 556 600 600 Q700 632 800 580 Q900 554 1000 580 Q1100 632 1200 589 Q1300 568 1400 593 Q1500 614 1600 576 Q1700 613 1800 581 Q1900 550 2000 575 Q2100 644 2200 615 Q2300 602 2400 608 Q2500 636 2600 568 Q2700 603 2800 564"/>
<path d="M-20 675 Q100 682 200 691 Q300 728 400 674 Q500 637 600 672 Q700 635 800 685 Q900 678 1000 679 Q1100 676 1200 690 Q1300 658 1400 690 Q1500 618 1600 663 Q1700 680 1800 657 Q1900 702 2000 662 Q2100 643 2200 684 Q2300 666 2400 649 Q2500 708 2600 694 Q2700 725 2800 700"/>
<path d="M-20 780 Q100 835 200 752 Q300 812 400 786 Q500 807 600 804 Q700 725 800 759 Q900 730 1000 757 Q1100 731 1200 751 Q1300 793 1400 807 Q1500 743 1600 758 Q1700 745 1800 791 Q1900 750 2000 778 Q2100 840 2200 776 Q2300 801 2400 797 Q2500 768 2600 775 Q2700 728 2800 764"/>
<path d="M-20 884 Q100 941 200 863 Q300 935 400 885 Q500 839 600 867 Q700 897 800 864 Q900 834 1000 871 Q1100 902 1200 888 Q1300 882 1400 914 Q1500 833 1600 879 Q1700 862 1800 854 Q1900 825 2000 879 Q2100 835 2200 868 Q2300 935 2400 901 Q2500 916 2600 880 Q2700 927 2800 912"/>
<path d="M-20 984 Q100 1003 200 988 Q300 966 400 978 Q500 984 600 984 Q700 992 800 997 Q900 1004 1000 992 Q1100 1012 1200 1007 Q1300 1025 1400 1013 Q1500 977 1600 983 Q1700 1039 1800 1013 Q1900 967 2000 959 Q2100 965 2200 1007 Q2300 1009 2400 998 Q2500 1039 2600 1001 Q2700 949 2800 968"/>
<path d="M-20 1084 Q100 1036 200 1109 Q300 1120 400 1092 Q500 1109 600 1086 Q700 1077 800 1106 Q900 1092 1000 1106 Q1100 1056 1200 1095 Q1300 1076 1400 1078 Q1500 1046 1600 1089 Q1700 1052 1800 1108 Q1900 1123 2000 1074 Q2100 1106 2200 1107 Q2300 1038 2400 1072 Q2500 1134 2600 1054 Q2700 1040 2800 1078"/>
<path d="M-20 1161 Q100 1184 200 1185 Q300 1121 400 1143 Q500 1214 600 1173 Q700 1122 800 1138 Q900 1176 1000 1132 Q1100 1198 1200 1166 Q1300 1191 1400 1138 Q1500 1140 1600 1174 Q1700 1215 1800 1164 Q1900 1171 2000 1177 Q2100 1185 2200 1175 Q2300 1172 2400 1137 Q2500 1106 2600 1167 Q2700 1128 2800 1166"/>
<path d="M-20 1268 Q100 1234 200 1275 Q300 1283 400 1286 Q500 1236 600 1292 Q700 1214 800 1279 Q900 1256 1000 1285 Q1100 1287 1200 1286 Q1300 1220 1400 1293 Q1500 1268 1600 1287 Q1700 1259 1800 1290 Q1900 1302 2000 1281 Q2100 1316 2200 1289 Q2300 1230 2400 1281 Q2500 1226 2600 1245 Q2700 1321 2800 1295"/>
<path d="M-20 1362 Q100 1311 200 1347 Q300 1415 400 1384 Q500 1416 600 1348 Q700 1325 800 1333 Q900 1358 1000 1365 Q1100 1319 1200 1351 Q1300 1359 1400 1345 Q1500 1308 1600 1334 Q1700 1313 1800 1369 Q1900 1358 2000 1380 Q2100 1389 2200 1362 Q2300 1386 2400 1355 Q2500 1375 2600 1390 Q2700 1394 2800 1389"/>
</g>
<g fill="#16284A" fill-opacity="0.045">
<rect x="14" y="374" width="90" height="70" rx="4"/>
<rect x="14" y="614" width="76" height="80" rx="4"/>
<rect x="14" y="854" width="90" height="90" rx="4"/>
<rect x="14" y="974" width="82" height="86" rx="4"/>
<rect x="14" y="1214" width="90" height="92" rx="4"/>
<rect x="134" y="134" width="69" height="82" rx="4"/>
<rect x="134" y="254" width="65" height="68" rx="4"/>
<rect x="134" y="374" width="62" height="86" rx="4"/>
<rect x="134" y="614" width="91" height="87" rx="4"/>
<rect x="134" y="974" width="66" height="68" rx="4"/>
<rect x="134" y="1094" width="78" height="83" rx="4"/>
<rect x="134" y="1214" width="66" height="66" rx="4"/>
<rect x="254" y="854" width="71" height="82" rx="4"/>
<rect x="254" y="1094" width="67" height="72" rx="4"/>
<rect x="374" y="254" width="85" height="86" rx="4"/>
<rect x="374" y="374" width="75" height="68" rx="4"/>
<rect x="374" y="974" width="75" height="78" rx="4"/>
<rect x="374" y="1094" width="76" height="69" rx="4"/>
<rect x="374" y="1334" width="77" height="85" rx="4"/>
<rect x="494" y="254" width="84" height="74" rx="4"/>
<rect x="494" y="734" width="74" height="75" rx="4"/>
<rect x="494" y="1094" width="86" height="88" rx="4"/>
<rect x="494" y="1214" width="73" height="66" rx="4"/>
<rect x="614" y="14" width="82" height="80" rx="4"/>
<rect x="614" y="134" width="87" height="90" rx="4"/>
<rect x="614" y="374" width="89" height="73" rx="4"/>
<rect x="614" y="494" width="78" height="89" rx="4"/>
<rect x="614" y="734" width="83" height="88" rx="4"/>
<rect x="614" y="854" width="79" height="86" rx="4"/>
<rect x="734" y="374" width="73" height="70" rx="4"/>
<rect x="734" y="854" width="62" height="91" rx="4"/>
<rect x="734" y="974" width="83" height="66" rx="4"/>
<rect x="854" y="14" width="76" height="69" rx="4"/>
<rect x="854" y="134" width="68" height="72" rx="4"/>
<rect x="854" y="494" width="91" height="70" rx="4"/>
<rect x="854" y="1094" width="71" height="63" rx="4"/>
<rect x="974" y="134" width="73" height="75" rx="4"/>
<rect x="974" y="254" width="91" height="66" rx="4"/>
<rect x="974" y="614" width="70" height="64" rx="4"/>
<rect x="974" y="974" width="85" height="79" rx="4"/>
<rect x="974" y="1094" width="91" height="75" rx="4"/>
<rect x="1094" y="14" width="83" height="74" rx="4"/>
<rect x="1094" y="134" width="82" height="83" rx="4"/>
<rect x="1094" y="254" width="81" height="79" rx="4"/>
<rect x="1094" y="734" width="73" height="65" rx="4"/>
<rect x="1214" y="14" width="73" height="90" rx="4"/>
<rect x="1214" y="134" width="91" height="67" rx="4"/>
<rect x="1214" y="254" width="85" height="72" rx="4"/>
<rect x="1214" y="374" width="84" height="88" rx="4"/>
<rect x="1214" y="614" width="73" height="69" rx="4"/>
<rect x="1214" y="734" width="67" height="65" rx="4"/>
<rect x="1214" y="1094" width="87" height="91" rx="4"/>
<rect x="1334" y="14" width="76" height="67" rx="4"/>
<rect x="1334" y="374" width="89" height="73" rx="4"/>
<rect x="1334" y="614" width="83" height="80" rx="4"/>
<rect x="1334" y="1094" width="64" height="62" rx="4"/>
<rect x="1454" y="14" width="65" height="87" rx="4"/>
<rect x="1454" y="134" width="71" height="79" rx="4"/>
<rect x="1454" y="494" width="75" height="72" rx="4"/>
<rect x="1454" y="614" width="87" height="86" rx="4"/>
<rect x="1454" y="854" width="62" height="76" rx="4"/>
<rect x="1454" y="974" width="78" height="77" rx="4"/>
<rect x="1454" y="1094" width="76" height="67" rx="4"/>
<rect x="1454" y="1214" width="86" height="90" rx="4"/>
<rect x="1574" y="14" width="88" height="67" rx="4"/>
<rect x="1574" y="134" width="65" height="70" rx="4"/>
<rect x="1574" y="734" width="72" height="78" rx="4"/>
<rect x="1574" y="854" width="88" height="89" rx="4"/>
<rect x="1574" y="974" width="77" height="88" rx="4"/>
<rect x="1574" y="1094" width="81" height="72" rx="4"/>
<rect x="1574" y="1214" width="85" height="71" rx="4"/>
<rect x="1694" y="254" width="84" height="76" rx="4"/>
<rect x="1694" y="374" width="74" height="80" rx="4"/>
<rect x="1694" y="854" width="81" height="63" rx="4"/>
<rect x="1694" y="1214" width="63" height="64" rx="4"/>
<rect x="1814" y="374" width="78" height="79" rx="4"/>
<rect x="1814" y="974" width="83" height="69" rx="4"/>
<rect x="1814" y="1214" width="75" height="64" rx="4"/>
<rect x="1814" y="1334" width="63" height="72" rx="4"/>
<rect x="1934" y="494" width="69" height="81" rx="4"/>
<rect x="1934" y="734" width="80" height="90" rx="4"/>
<rect x="1934" y="854" width="81" height="83" rx="4"/>
<rect x="1934" y="974" width="92" height="80" rx="4"/>
<rect x="1934" y="1094" width="68" height="67" rx="4"/>
<rect x="1934" y="1214" width="79" height="75" rx="4"/>
<rect x="2054" y="14" width="88" height="80" rx="4"/>
<rect x="2054" y="134" width="84" height="72" rx="4"/>
<rect x="2054" y="254" width="63" height="65" rx="4"/>
<rect x="2054" y="494" width="79" height="71" rx="4"/>
<rect x="2054" y="614" width="79" height="83" rx="4"/>
<rect x="2054" y="734" width="86" height="92" rx="4"/>
<rect x="2054" y="854" width="73" height="72" rx="4"/>
<rect x="2054" y="974" width="64" height="89" rx="4"/>
<rect x="2054" y="1094" width="70" height="72" rx="4"/>
<rect x="2174" y="134" width="85" height="87" rx="4"/>
<rect x="2174" y="254" width="82" height="86" rx="4"/>
<rect x="2174" y="374" width="87" height="77" rx="4"/>
<rect x="2174" y="614" width="77" height="73" rx="4"/>
<rect x="2174" y="734" width="64" height="72" rx="4"/>
<rect x="2174" y="1214" width="80" height="79" rx="4"/>
<rect x="2174" y="1334" width="88" height="80" rx="4"/>
<rect x="2294" y="734" width="82" height="63" rx="4"/>
<rect x="2294" y="1214" width="69" height="81" rx="4"/>
</g>
<g stroke="#16284A" stroke-opacity="0.07" stroke-width="3">
<path d="M120 392V1060"/>
<path d="M240 0V1400"/>
<path d="M360 348V1071"/>
<path d="M480 16V1400"/>
<path d="M600 0V1400"/>
<path d="M720 0V1400"/>
<path d="M840 0V1400"/>
<path d="M960 0V1400"/>
<path d="M1080 0V1400"/>
<path d="M1200 57V721"/>
<path d="M1320 0V1400"/>
<path d="M1440 0V729"/>
<path d="M1560 0V1400"/>
<path d="M1680 0V1400"/>
<path d="M1800 0V1400"/>
<path d="M1920 0V1400"/>
<path d="M2040 251V1400"/>
<path d="M2160 0V1400"/>
<path d="M2280 0V1400"/>
<path d="M0 120H2400"/>
<path d="M0 240H2400"/>
<path d="M49 360H2400"/>
<path d="M0 480H2400"/>
<path d="M259 600H1735"/>
<path d="M0 720H2400"/>
<path d="M0 840H2400"/>
<path d="M1003 960H2400"/>
<path d="M0 1080H2400"/>
<path d="M0 1200H2400"/>
<path d="M349 1320H2400"/>
</g>
<g fill="none" stroke="#16284A">
<path d="M600 0V1400" stroke-opacity="0.12" stroke-width="12"/><path d="M600 0V1400" stroke="#EFE6D6" stroke-width="6"/>
<path d="M1560 0V1400" stroke-opacity="0.12" stroke-width="12"/><path d="M1560 0V1400" stroke="#EFE6D6" stroke-width="6"/>
<path d="M0 480H2400" stroke-opacity="0.12" stroke-width="12"/><path d="M0 480H2400" stroke="#EFE6D6" stroke-width="6"/>
<path d="M0 1080H2400" stroke-opacity="0.12" stroke-width="12"/><path d="M0 1080H2400" stroke="#EFE6D6" stroke-width="6"/>
</g>
<path d="M-40 420 C 400 210, 700 630, 1100 448 S 1800 168, 2440 392" fill="none" stroke="#16284A" stroke-opacity="0.08" stroke-width="26" stroke-linecap="round"/>
<ellipse cx="480" cy="924" rx="120" ry="80" fill="#16284A" fill-opacity="0.08"/>
<g fill="none" stroke-linecap="round">
<path d="M1488 -20 C 1392 560, 1056 980, 864 1420" stroke="#16284A" stroke-opacity="0.14" stroke-width="20"/><path d="M1488 -20 C 1392 560, 1056 980, 864 1420" stroke="#EFE6D6" stroke-width="12"/><path d="M1488 -20 C 1392 560, 1056 980, 864 1420" stroke="#16284A" stroke-opacity="0.14" stroke-width="2" stroke-dasharray="14 12"/>
<path d="M-20 1092 C 720 980, 1680 980, 2420 1120" stroke="#16284A" stroke-opacity="0.14" stroke-width="20"/><path d="M-20 1092 C 720 980, 1680 980, 2420 1120" stroke="#EFE6D6" stroke-width="12"/><path d="M-20 1092 C 720 980, 1680 980, 2420 1120" stroke="#16284A" stroke-opacity="0.14" stroke-width="2" stroke-dasharray="14 12"/>
<path d="M2064 -20 C 2016 700, 2160 1120, 2112 1420" stroke="#16284A" stroke-opacity="0.14" stroke-width="20"/><path d="M2064 -20 C 2016 700, 2160 1120, 2112 1420" stroke="#EFE6D6" stroke-width="12"/><path d="M2064 -20 C 2016 700, 2160 1120, 2112 1420" stroke="#16284A" stroke-opacity="0.14" stroke-width="2" stroke-dasharray="14 12"/>
</g></svg>