<?xml version="1.0" encoding="UTF-8"?>
<svg xmlns="http://www.w3.org/2000/svg" id="nl-service-map" viewBox="0 0 1200 900" aria-hidden="true" focusable="false" data-i45-x="626.4" font-family='"Bricolage Grotesque", "Atkinson Hyperlegible", system-ui, sans-serif'>
<!-- Northline service-area map. Generated by scripts/build-map.ts; do not edit by hand. -->
<!-- geometry: hand-traced from known alignments (Overpass unreachable at build) -->
<title>Northline service area: north Houston</title>
<defs>
<filter id="nl-field-feather" x="-60%" y="-60%" width="220%" height="220%"><feGaussianBlur stdDeviation="14"/></filter>
<clipPath id="nl-map-clip"><rect width="1200" height="900"/></clipPath>
</defs>
<style>
#nl-service-map{display:block;width:100%;height:auto}
#nl-service-map .t-display{font-family:var(--font-bricolage,"Bricolage Grotesque"),"Bricolage Grotesque","Atkinson Hyperlegible",system-ui,sans-serif}
#nl-service-map .t-text{font-family:var(--font-atkinson,"Atkinson Hyperlegible"),"Atkinson Hyperlegible",system-ui,sans-serif}
#nl-service-map [data-city]{cursor:pointer}
#nl-service-map [data-city] text{transition:fill-opacity .2s ease}
#nl-service-map [data-pin-wrap]{transition:transform .25s cubic-bezier(.22,.61,.36,1)}
#nl-service-map [data-city].is-active text{fill-opacity:1}
#nl-service-map [data-city].is-active [data-pin-wrap]{transform:scale(1.15)}
@media (max-width:640px){
#nl-service-map .t-core{font-size:40px}
#nl-service-map .t-town{font-size:28px}
#nl-service-map .t-tmc{font-size:24px}
#nl-service-map .t-hosp,#nl-service-map .t-road{display:none}
#nl-service-map [data-pin-wrap]{transform:scale(1.8)}
#nl-service-map [data-city].is-active [data-pin-wrap]{transform:scale(2)}
#nl-service-map [data-tmc-ring]{transform:scale(1.8)}
#nl-service-map [data-town-dot]{transform:scale(1.8)}
}
</style>
<rect width="1200" height="900" fill="#16284A"/>
<g clip-path="url(#nl-map-clip)">
<g data-field="" filter="url(#nl-field-feather)" opacity="0.25"><polygon points="279.6,513.6 562.5,241.2 801.2,472.4 672.2,802.5" fill="#DCE6F5" stroke="#DCE6F5" stroke-width="450.8" stroke-linejoin="round"/></g>
<g data-water="" fill="none" stroke="#DCE6F5" stroke-opacity="0.18" stroke-linecap="round" stroke-linejoin="round">
<path d="M875.8 436.2L902.2 426.5L917.8 408.5L935.8 398.8L953.7 401.5L989.7 429.2L1007.7 456.9L1013.7 491.5L1001.7 526.2L983.7 567.7L959.7 598.2L923.8 606.5L899.8 588.5L878.2 505.4L904.6 456.9Z" fill="#DCE6F5" fill-opacity="0.18" stroke-width="1.5"/>
<path d="M156.3 276.9L228.3 283.8L372.2 311.5L432.1 325.4L492.1 332.3L540 325.4L588 311.5L636 318.5L683.9 332.3L743.9 366.9" stroke-width="2.5"/>
<path d="M156.3 498.5L228.3 484.6L288.2 470.8L444.1 491.5L528.1 456.9L576 463.8L606 456.9L648 456.9L755.9 470.8L785.9 425.1" stroke-width="2.5"/>
<path d="M444.1 -27.7L540 55.4L576 96.9L612 145.4L636 193.8L654 242.3L683.9 290.8L713.9 332.3L743.9 366.9L767.9 401.5L791.9 422.3L875.8 436.2" stroke-width="2.5"/>
</g>
<g data-roads="" fill="none" stroke="#DCE6F5" stroke-opacity="0.35" stroke-width="2.5" stroke-linecap="round" stroke-linejoin="round">
<path d="M689.9 731.1L683.9 685.4L662.4 602.3L654 558L646.8 477.7L640.8 436.2L632.4 398.8L622.8 373.8L597.6 342"/>
<path d="M415.3 602.3L438.1 560.8L456.1 540L471.7 528.9L504.1 515.1L528.1 501.2L570 487.4L683.9 473.5L731.9 472.2L801.5 472.2L893.8 481.8L923.8 473.5L953.7 459.7L1043.7 429.2"/>
</g>
<g data-freeways="" fill="none" stroke-linecap="round" stroke-linejoin="round">
<g data-freeway-group="i45">
<path d="M737.9 900L707.9 869.5L669.5 814.2L676.7 796.2L676.7 775.4L662.4 747.7L645.6 729.7L626.4 616.2L620.4 556.6L614.4 519.2L598.8 366.9L590.4 325.4L573.6 263.1L566.4 228.5L564 193.8L564 138.5L552 -27.7" stroke="#16284A" stroke-width="8" pathLength="1" data-freeway=""/>
<path d="M737.9 900L707.9 869.5L669.5 814.2L676.7 796.2L676.7 775.4L662.4 747.7L645.6 729.7L626.4 616.2L620.4 556.6L614.4 519.2L598.8 366.9L590.4 325.4L573.6 263.1L566.4 228.5L564 193.8L564 138.5L552 -27.7" stroke="#DCE6F5" stroke-opacity="0.55" stroke-width="3.5" pathLength="1" data-freeway=""/>
</g>
<g data-freeway-group="us290">
<path d="M573.6 747.7L549.6 717.2L522.1 689.5L458.5 639.7L408.1 595.4L374.6 570.5L132.3 429.2L36.4 387.7L-35.5 360" stroke="#16284A" stroke-width="8" pathLength="1" data-freeway=""/>
<path d="M573.6 747.7L549.6 717.2L522.1 689.5L458.5 639.7L408.1 595.4L374.6 570.5L132.3 429.2L36.4 387.7L-35.5 360" stroke="#DCE6F5" stroke-opacity="0.55" stroke-width="3.5" pathLength="1" data-freeway=""/>
</g>
<g data-freeway-group="tx249">
<path d="M538.8 574.6L516.1 560.8L471.7 528.9L434.5 470.8L378.2 390.5L356.6 332.3L338.6 297.7L312.2 263.1L276.2 228.5L228.3 193.8" stroke="#16284A" stroke-width="8" pathLength="1" data-freeway=""/>
<path d="M538.8 574.6L516.1 560.8L471.7 528.9L434.5 470.8L378.2 390.5L356.6 332.3L338.6 297.7L312.2 263.1L276.2 228.5L228.3 193.8" stroke="#DCE6F5" stroke-opacity="0.55" stroke-width="3.5" pathLength="1" data-freeway=""/>
</g>
<g data-freeway-group="sh99">
<path d="M192.3 900L194.7 775.4L201.9 692.3L213.9 616.2L228.3 553.8L243.9 501.2L258.3 443.1L294.2 408.5L342.2 390.5L516.1 353.1L564 336.5L594 328.2L683.9 321.2L731.9 321.2L773.9 325.4L815.8 332.3L935.8 366.9L995.7 387.7L1055.7 429.2L1115.6 484.6L1199.6 567.7" stroke="#16284A" stroke-width="8" pathLength="1" data-freeway=""/>
<path d="M192.3 900L194.7 775.4L201.9 692.3L213.9 616.2L228.3 553.8L243.9 501.2L258.3 443.1L294.2 408.5L342.2 390.5L516.1 353.1L564 336.5L594 328.2L683.9 321.2L731.9 321.2L773.9 325.4L815.8 332.3L935.8 366.9L995.7 387.7L1055.7 429.2L1115.6 484.6L1199.6 567.7" stroke="#DCE6F5" stroke-opacity="0.55" stroke-width="3.5" pathLength="1" data-freeway=""/>
</g>
<g data-freeway-group="beltway8">
<path d="M446.5 900L446.5 747.7L453.7 699.2L470.5 667.4L492.1 643.8L516.1 602.3L537.6 574.6L576 562.2L620.4 556.6L743.9 560.8L809.8 609.2L875.8 671.5L899.8 706.2L914.2 747.7L923.8 858.5L923.8 900" stroke="#16284A" stroke-width="8" pathLength="1" data-freeway=""/>
<path d="M446.5 900L446.5 747.7L453.7 699.2L470.5 667.4L492.1 643.8L516.1 602.3L537.6 574.6L576 562.2L620.4 556.6L743.9 560.8L809.8 609.2L875.8 671.5L899.8 706.2L914.2 747.7L923.8 858.5L923.8 900" stroke="#DCE6F5" stroke-opacity="0.55" stroke-width="3.5" pathLength="1" data-freeway=""/>
</g>
<g data-freeway-group="us59">
<path d="M695.9 796.2L707.9 775.4L725.9 726.9L737.9 636.9L743.9 560.8L789.5 477.7L800.3 429.2L818.2 366.9L821.8 325.4L833.8 283.8L860.2 263.1L899.8 207.7" stroke="#16284A" stroke-width="8" pathLength="1" data-freeway=""/>
<path d="M695.9 796.2L707.9 775.4L725.9 726.9L737.9 636.9L743.9 560.8L789.5 477.7L800.3 429.2L818.2 366.9L821.8 325.4L833.8 283.8L860.2 263.1L899.8 207.7" stroke="#DCE6F5" stroke-opacity="0.55" stroke-width="3.5" pathLength="1" data-freeway=""/>
</g>
<g data-freeway-group="i610">
<path d="M570 900L564 789.2L573.6 733.8L612 729.7L689.9 731.1L725.9 726.9L761.9 733.8L782.3 754.6L791.9 789.2L794.3 830.8L791.9 900" stroke="#16284A" stroke-width="8" pathLength="1" data-freeway=""/>
<path d="M570 900L564 789.2L573.6 733.8L612 729.7L689.9 731.1L725.9 726.9L761.9 733.8L782.3 754.6L791.9 789.2L794.3 830.8L791.9 900" stroke="#DCE6F5" stroke-opacity="0.55" stroke-width="3.5" pathLength="1" data-freeway=""/>
</g>
<g data-freeway-group="i10">
<path d="M-35.5 768.5L192.3 772.6L446.5 771.2L564 782.3L636 786.5L676.7 786.5L731.9 792L923.8 775.4L1199.6 747.7" stroke="#16284A" stroke-width="8" pathLength="1" data-freeway=""/>
<path d="M-35.5 768.5L192.3 772.6L446.5 771.2L564 782.3L636 786.5L676.7 786.5L731.9 792L923.8 775.4L1199.6 747.7" stroke="#DCE6F5" stroke-opacity="0.55" stroke-width="3.5" pathLength="1" data-freeway=""/>
</g>
</g>
<g data-road-labels="" class="t-text" font-size="16" font-weight="700" fill="#FFFFFF" fill-opacity="0.6" letter-spacing="0.04em">
<text class="t-road" data-label="" x="542.4" y="108" text-anchor="middle" transform="rotate(86 542.4 108)">I-45</text>
<text class="t-road" data-label="" x="592.8" y="609.2" text-anchor="middle" transform="rotate(84 592.8 609.2)">I-45</text>
<text class="t-road" data-label="" x="360.2" y="544.2" text-anchor="middle" transform="rotate(32 360.2 544.2)">US-290</text>
<text class="t-road" data-label="" x="384.2" y="432" text-anchor="middle" transform="rotate(57 384.2 432)">TX-249</text>
<text class="t-road" data-label="" x="468.1" y="346.2" text-anchor="middle" transform="rotate(-13 468.1 346.2)">Grand Parkway 99</text>
<text class="t-road" data-label="" x="564" y="542.8" text-anchor="middle">Beltway 8</text>
<text class="t-road" data-label="" x="662.4" y="408.5" text-anchor="middle" transform="rotate(80 662.4 408.5)">Hardy Toll Rd</text>
<text class="t-road" data-label="" x="737.9" y="454.2" text-anchor="middle">FM 1960</text>
<text class="t-road" data-label="" x="758.3" y="613.4" text-anchor="middle" transform="rotate(-85 758.3 613.4)">US-59</text>
<text class="t-road" data-label="" x="372.2" y="761.5" text-anchor="middle">I-10</text>
<text class="t-road" data-label="" x="947.7" y="519.2" text-anchor="middle" font-weight="400" font-style="italic" letter-spacing="0.08em">Lake Houston</text>
<text class="t-road" data-label="" x="372.2" y="297.7" text-anchor="middle" font-weight="400" font-style="italic" letter-spacing="0.08em">Spring Creek</text>
</g>
<g data-towns="" class="t-text" font-size="18" font-weight="400" fill="#FFFFFF">
<g data-town="tomball"><circle data-town-dot="" cx="376.8" cy="336.2" r="3" fill="#FFFFFF" fill-opacity="0.6" style="transform-origin:376.8px 336.2px"/><text class="t-town" data-label="" x="385.8" y="342.2" text-anchor="start" fill-opacity="0.7">Tomball</text></g>
<g data-town="kingwood"><circle data-town-dot="" cx="893.8" cy="401.5" r="3" fill="#FFFFFF" fill-opacity="0.6" style="transform-origin:893.8px 401.5px"/><text class="t-town" data-label="" x="884.8" y="407.5" text-anchor="end" fill-opacity="0.7">Kingwood</text></g>
<g data-town="klein"><circle data-town-dot="" cx="480.1" cy="425.1" r="3" fill="#FFFFFF" fill-opacity="0.6" style="transform-origin:480.1px 425.1px"/><text class="t-town" data-label="" x="489.1" y="431.1" text-anchor="start" fill-opacity="0.7">Klein</text></g>
<g data-town="aldine"><circle data-town-dot="" cx="660.1" cy="564" r="3" fill="#FFFFFF" fill-opacity="0.6" style="transform-origin:660.1px 564px"/><text class="t-town" data-label="" x="669.1" y="570" text-anchor="start" fill-opacity="0.7">Aldine</text></g>
<g data-town="conroe"><circle data-town-dot="" cx="568.7" cy="38.9" r="3" fill="#FFFFFF" fill-opacity="0.6" style="transform-origin:568.7px 38.9px"/><text class="t-town" data-label="" x="577.7" y="44.9" text-anchor="start" fill-opacity="0.7">Conroe</text></g>
</g>
<g data-hospitals="" class="t-text" font-size="17" font-weight="400" fill="#FFFFFF">
<g data-hospital="hca-houston-healthcare-northwest" data-x="604.9" data-y="486.8"><g data-pin-wrap="" style="transform-origin:604.9px 486.8px"><g transform="translate(599.5 472.8) scale(0.5)"><path d="M12 0C5.4 0 0 5.4 0 12c0 8.5 12 19 12 19s12-10.5 12-19C24 5.4 18.6 0 12 0z" fill="#E8A33D" data-pin=""/><circle cx="12" cy="12" r="4.5" fill="#16284A"/></g></g><text class="t-hosp" data-label="" x="615.9" y="492.8" text-anchor="start" fill-opacity="0.85"><tspan x="615.9" dy="0">HCA Houston Healthcare</tspan><tspan x="615.9" dy="15">Northwest</tspan></text></g>
<g data-hospital="memorial-hermann-the-woodlands" data-x="568.5" data-y="253.7"><g data-pin-wrap="" style="transform-origin:568.5px 253.7px"><g transform="translate(563 239.7) scale(0.5)"><path d="M12 0C5.4 0 0 5.4 0 12c0 8.5 12 19 12 19s12-10.5 12-19C24 5.4 18.6 0 12 0z" fill="#E8A33D" data-pin=""/><circle cx="12" cy="12" r="4.5" fill="#16284A"/></g></g><text class="t-hosp" data-label="" x="579.5" y="257.7" text-anchor="start" fill-opacity="0.85"><tspan x="579.5" dy="0">Memorial Hermann</tspan><tspan x="579.5" dy="15">The Woodlands Medical Center</tspan></text></g>
<g data-hospital="houston-methodist-willowbrook" data-x="453.8" data-y="501.1"><g data-pin-wrap="" style="transform-origin:453.8px 501.1px"><g transform="translate(448.4 487.1) scale(0.5)"><path d="M12 0C5.4 0 0 5.4 0 12c0 8.5 12 19 12 19s12-10.5 12-19C24 5.4 18.6 0 12 0z" fill="#E8A33D" data-pin=""/><circle cx="12" cy="12" r="4.5" fill="#16284A"/></g></g><text class="t-hosp" data-label="" x="442.8" y="493.1" text-anchor="end" fill-opacity="0.85"><tspan x="442.8" dy="0">Houston Methodist</tspan><tspan x="442.8" dy="15">Willowbrook Hospital</tspan></text></g>
<g data-hospital="st-lukes-the-woodlands" data-x="572.1" data-y="204.6"><g data-pin-wrap="" style="transform-origin:572.1px 204.6px"><g transform="translate(566.6 190.6) scale(0.5)"><path d="M12 0C5.4 0 0 5.4 0 12c0 8.5 12 19 12 19s12-10.5 12-19C24 5.4 18.6 0 12 0z" fill="#E8A33D" data-pin=""/><circle cx="12" cy="12" r="4.5" fill="#16284A"/></g></g><text class="t-hosp" data-label="" x="583.1" y="196.6" text-anchor="start" fill-opacity="0.85"><tspan x="583.1" dy="0">St. Luke's Health –</tspan><tspan x="583.1" dy="15">The Woodlands Hospital</tspan></text></g>
</g>
<g data-route-layer=""></g>
<g data-cities="" class="t-display" font-size="26" font-weight="700" fill="#FFFFFF">
<g data-city="houston" id="city-houston" data-name="Houston" data-x="656.4" data-y="661.8"><circle cx="656.4" cy="655.8" r="40" fill="transparent" pointer-events="all"/><g data-pin-wrap="" style="transform-origin:656.4px 661.8px"><g transform="translate(649.4 643.8) scale(0.6)"><path d="M12 0C5.4 0 0 5.4 0 12c0 8.5 12 19 12 19s12-10.5 12-19C24 5.4 18.6 0 12 0z" fill="#E8A33D" data-pin=""/><circle cx="12" cy="12" r="4.5" fill="#16284A"/></g></g><text class="t-core" data-label="" x="671.4" y="659.8" text-anchor="start" fill-opacity="0.92">Houston</text></g>
<g data-city="spring" id="city-spring" data-name="Spring" data-x="615.3" data-y="360.1"><circle cx="615.3" cy="354.1" r="40" fill="transparent" pointer-events="all"/><g data-pin-wrap="" style="transform-origin:615.3px 360.1px"><g transform="translate(608.4 342.1) scale(0.6)"><path d="M12 0C5.4 0 0 5.4 0 12c0 8.5 12 19 12 19s12-10.5 12-19C24 5.4 18.6 0 12 0z" fill="#E8A33D" data-pin=""/><circle cx="12" cy="12" r="4.5" fill="#16284A"/></g></g><text class="t-core" data-label="" x="630.3" y="358.1" text-anchor="start" fill-opacity="0.92">Spring</text></g>
<g data-city="humble" id="city-humble" data-name="Humble" data-x="801.2" data-y="472.4"><circle cx="801.2" cy="466.4" r="40" fill="transparent" pointer-events="all"/><g data-pin-wrap="" style="transform-origin:801.2px 472.4px"><g transform="translate(794.2 454.4) scale(0.6)"><path d="M12 0C5.4 0 0 5.4 0 12c0 8.5 12 19 12 19s12-10.5 12-19C24 5.4 18.6 0 12 0z" fill="#E8A33D" data-pin=""/><circle cx="12" cy="12" r="4.5" fill="#16284A"/></g></g><text class="t-core" data-label="" x="816.2" y="470.4" text-anchor="start" fill-opacity="0.92">Humble</text></g>
<g data-city="the-woodlands" id="city-the-woodlands" data-name="The Woodlands" data-x="562.5" data-y="241.2"><circle cx="562.5" cy="235.2" r="40" fill="transparent" pointer-events="all"/><g data-pin-wrap="" style="transform-origin:562.5px 241.2px"><g transform="translate(555.5 223.2) scale(0.6)"><path d="M12 0C5.4 0 0 5.4 0 12c0 8.5 12 19 12 19s12-10.5 12-19C24 5.4 18.6 0 12 0z" fill="#E8A33D" data-pin=""/><circle cx="12" cy="12" r="4.5" fill="#16284A"/></g></g><text class="t-core" data-label="" x="547.5" y="239.2" text-anchor="end" fill-opacity="0.92">The Woodlands</text></g>
<g data-city="cypress" id="city-cypress" data-name="Cypress" data-x="279.6" data-y="513.6"><circle cx="279.6" cy="507.6" r="40" fill="transparent" pointer-events="all"/><g data-pin-wrap="" style="transform-origin:279.6px 513.6px"><g transform="translate(272.6 495.6) scale(0.6)"><path d="M12 0C5.4 0 0 5.4 0 12c0 8.5 12 19 12 19s12-10.5 12-19C24 5.4 18.6 0 12 0z" fill="#E8A33D" data-pin=""/><circle cx="12" cy="12" r="4.5" fill="#16284A"/></g></g><text class="t-core" data-label="" x="264.6" y="511.6" text-anchor="end" fill-opacity="0.92">Cypress</text></g>
</g>
<g data-tmc="" data-x="638.4" data-y="876.5" class="t-text" fill="#FFFFFF"><g data-tmc-ring="" style="transform-origin:638.4px 876.5px"><circle cx="638.4" cy="876.5" r="7.5" fill="none" stroke="#FFFFFF" stroke-width="2.5"/><circle cx="638.4" cy="876.5" r="2.5"/></g><text class="t-tmc" data-label="" x="624.4" y="881.5" text-anchor="end" font-size="17" font-weight="700">Texas Medical Center</text></g>
<g data-chip-anchor=""></g>
</g>
</svg>
